<svg width="1440" height="899" viewBox="0 0 1440 899" fill="none" xmlns="http://www.w3.org/2000/svg">
    <rect x="0.000488281" y="0.523193" width="1440" height="898" fill="#4BBDFF" />
    <path
        d="M1440 267.523C1440 322.752 1440 296 1440 367.523C1384.77 367.523 1340 322.752 1340 267.523C1340 212.295 1384.77 167.523 1440 167.523C1440 245.5 1440 212.295 1440 267.523Z"
        fill="#15ABFF" />
    <rect x="1126" y="460.523" width="214" height="380" rx="8" fill="#15ABFF" />
    <path
        d="M413.001 581.023C413.001 717.161 302.639 827.523 166.501 827.523C102.718 827.523 44.5927 803.298 0.824976 763.546C0.825136 677 0.824219 648.355 0.824219 576C0.824219 503.645 0.824976 496.5 0.824976 398.5C44.5927 358.748 102.718 334.523 166.501 334.523C302.639 334.523 413.001 444.885 413.001 581.023Z"
        fill="#15ABFF" />
</svg>