<svg width="432" height="320" viewBox="0 0 432 320" fill="none" xmlns="http://www.w3.org/2000/svg">
<path d="M323.394 131.645C332.736 115.445 327.192 94.7223 311.01 85.3519C294.828 75.9995 274.128 81.5497 264.768 97.7497L323.394 131.645Z" fill="#FF5757"/>
<path d="M325.443 61.8659C325.443 61.8659 311.403 67.7945 302.007 59.1989C292.089 50.1349 297.597 43.8279 301.305 43.4494C312.249 42.2962 325.443 61.8659 325.443 61.8659Z" fill="white"/>
<path d="M276.774 263.587L275.37 260.073L273.894 255.208L283.614 252.27L285.072 257.136L286.476 263.893L287.502 267.281L273.768 274.056L270.816 275.786L267.378 269.858L270.33 268.128L276.774 263.587Z" fill="#FF5757"/>
<path d="M274.685 260.114C275.549 259.988 276.377 259.646 277.241 259.502C277.835 259.412 278.249 258.835 278.159 258.24C278.069 257.646 277.493 257.231 276.899 257.321C276.053 257.466 275.243 257.808 274.379 257.934C273.785 258.024 273.353 258.583 273.443 259.177C273.515 259.79 274.091 260.205 274.685 260.114Z" fill="white"/>
<path d="M275.892 263.863C276.828 263.863 277.764 263.917 278.682 263.881C279.294 263.863 279.762 263.358 279.744 262.745C279.726 262.133 279.222 261.664 278.61 261.682C277.692 261.718 276.774 261.646 275.856 261.664C275.244 261.664 274.758 262.169 274.776 262.781C274.794 263.376 275.298 263.881 275.892 263.863Z" fill="white"/>
<path d="M341.926 237.424L338.452 235.946L333.988 233.55L338.776 224.594L343.24 226.99L349.018 230.775L352.132 232.45L347.2 246.957L346.318 250.272L339.712 248.506L340.576 245.191L341.926 237.424Z" fill="#FF5757"/>
<path d="M337.972 236.443C338.494 235.74 338.836 234.911 339.34 234.209C339.7 233.722 339.592 233.019 339.088 232.677C338.602 232.316 337.9 232.425 337.558 232.929C337.054 233.632 336.73 234.443 336.208 235.146C335.848 235.632 335.938 236.317 336.424 236.677C336.928 237.038 337.612 236.93 337.972 236.443Z" fill="white"/>
<path d="M341.513 238.243C342.161 237.576 342.863 236.963 343.511 236.279C343.925 235.828 343.907 235.143 343.457 234.729C343.007 234.314 342.323 234.332 341.909 234.783C341.279 235.45 340.595 236.062 339.947 236.711C339.515 237.143 339.533 237.846 339.965 238.261C340.379 238.675 341.081 238.675 341.513 238.243Z" fill="white"/>
<path d="M329.036 217.92L289.238 195.125L289.166 194.584L289.472 194.404L303.926 171.519L306.896 166.401L314.456 155.517L272.696 140.146L269.762 141.281V141.263L269.546 141.371L264.83 143.209L265.082 143.552L260.186 145.93L245.57 153.607C242.258 155.355 239.288 157.625 236.984 160.472C234.698 163.301 232.862 166.527 231.854 170.095C230.864 173.645 230.486 177.303 230.954 180.871C231.422 184.421 232.484 187.899 234.356 191.034L266.414 244.734L269.906 251.023L282.488 244.049L278.996 237.76L250.466 182.096C249.962 181.123 249.8 180.042 249.728 178.979C249.656 177.952 249.908 176.925 250.268 175.915C250.61 174.942 251.24 174.131 251.924 173.393C252.59 172.672 253.454 172.203 254.372 171.789L269.456 165.067L278.294 160.779L282.578 166.383L272.894 184.727C271.67 187.052 270.806 189.539 270.59 192.097C270.374 194.638 270.536 197.251 271.364 199.72C272.174 202.171 273.344 204.477 275.036 206.369C276.71 208.243 278.654 209.919 280.976 211L322.43 230.606L328.802 233.94L335.444 221.164L329.036 217.92Z" fill="#FFD317"/>
<path d="M280.405 122.588L269.893 133.472C269.713 133.67 269.443 133.742 269.191 133.706C268.939 133.652 268.723 133.49 268.615 133.237L261.469 116.461C261.307 116.064 261.487 115.596 261.883 115.434C262.279 115.271 262.747 115.452 262.909 115.848L269.587 131.526L280.153 120.587C280.333 120.389 280.621 120.299 280.891 120.371C281.161 120.425 281.377 120.623 281.467 120.876L287.407 137.508L299.089 125.669C299.269 125.489 299.521 125.399 299.773 125.453C300.025 125.489 300.241 125.651 300.349 125.885L309.439 144.698C309.619 145.095 309.457 145.563 309.079 145.743C308.683 145.924 308.215 145.761 308.035 145.383L299.431 127.561L287.641 139.508C287.443 139.707 287.173 139.779 286.903 139.725C286.633 139.671 286.417 139.472 286.327 139.22L280.405 122.588Z" fill="white"/>
<path d="M219.832 29.6535C217.366 26.3018 213.928 22.86 209.914 21.5085C209.23 21.2742 207.88 20.9138 206.818 21.04C205.882 21.1661 205.162 21.6346 204.982 22.6437C204.874 23.2564 205 23.8691 205.27 24.4457C205.63 25.1846 206.224 25.8513 206.764 26.3559C208.6 28.0498 210.598 29.5274 212.38 31.2753C212.65 31.5276 213.064 31.5276 213.316 31.2573C213.568 30.987 213.568 30.5726 213.298 30.3203C211.498 28.5723 209.482 27.0767 207.646 25.3828C207.286 25.0404 206.872 24.626 206.584 24.1394C206.35 23.743 206.188 23.3285 206.26 22.878C206.332 22.5176 206.62 22.3915 206.962 22.3554C207.808 22.2473 208.906 22.5717 209.464 22.7519C213.244 24.0313 216.43 27.2749 218.752 30.4284C218.968 30.7167 219.382 30.7888 219.688 30.5725C219.976 30.3743 220.048 29.9599 219.832 29.6535Z" fill="white"/>
<path d="M218.666 33.0264C217.55 32.2515 216.434 31.4586 215.21 30.864C213.968 30.2693 212.402 30.1612 211.124 30.5216C210.206 30.7919 209.432 31.3145 209 32.0533C208.55 32.8462 208.442 33.9094 209.054 35.2609C209.576 36.4322 210.656 37.3152 211.97 37.9278C213.806 38.7748 216.092 39.0631 217.73 38.9189C218.36 38.8649 219.386 38.6486 220.178 38.2161C220.826 37.8557 221.294 37.3332 221.42 36.6844C221.492 36.324 221.258 35.9817 220.898 35.9096C220.538 35.8375 220.196 36.0718 220.124 36.4322C220.07 36.7205 219.818 36.9007 219.53 37.0448C218.918 37.3872 218.108 37.5494 217.622 37.5854C216.182 37.7116 214.166 37.4593 212.546 36.7205C211.556 36.252 210.692 35.6213 210.296 34.7203C209.918 33.8733 209.9 33.2066 210.188 32.72C210.458 32.2695 210.944 31.9632 211.52 31.801C212.492 31.5127 213.698 31.6208 214.67 32.0713C215.84 32.63 216.884 33.3688 217.928 34.1076C218.234 34.3238 218.648 34.2517 218.846 33.9454C219.044 33.6571 218.972 33.2426 218.666 33.0264Z" fill="white"/>
<path d="M210.498 36.3966C209.958 36.6489 209.382 36.9012 208.932 37.2616C207.294 38.559 207.78 40.9377 209.112 42.2171C210.174 43.2262 213.072 44.1092 215.394 43.8389C217.122 43.6407 218.49 42.8298 218.796 41.244C218.868 40.8836 218.634 40.5412 218.274 40.4691C217.914 40.3971 217.572 40.6313 217.5 40.9917C217.302 42.0008 216.348 42.3973 215.25 42.5234C213.342 42.7397 210.93 42.109 210.048 41.262C209.256 40.5052 208.788 39.0996 209.778 38.3248C210.156 38.0184 210.642 37.8202 211.074 37.622C211.416 37.4778 211.56 37.0814 211.398 36.739C211.236 36.3966 210.84 36.2525 210.498 36.3966Z" fill="white"/>
<path d="M221.141 49.0958C233.669 63.8542 248.681 77.8017 263.369 90.5418C263.639 90.7761 264.053 90.7401 264.287 90.4698C264.521 90.1995 264.485 89.785 264.215 89.5507C249.581 76.8647 234.623 62.9712 222.131 48.2489C221.897 47.9786 221.483 47.9426 221.213 48.1768C220.925 48.4111 220.907 48.8255 221.141 49.0958Z" fill="white"/>
<path d="M218.431 30.0159C236.287 43.6751 257.131 60.6319 275.311 77.4986C275.581 77.7509 275.995 77.7329 276.229 77.4626C276.481 77.1923 276.463 76.7778 276.193 76.5436C257.995 59.6408 237.097 42.648 219.223 28.9708C218.935 28.7545 218.521 28.8086 218.305 29.0969C218.089 29.3852 218.143 29.7997 218.431 30.0159Z" fill="white"/>
<path d="M210.433 42.0105C210.073 42.2808 209.749 42.6953 209.623 43.1277C209.047 45.146 210.487 46.7678 212.233 47.4525C213.709 48.0472 215.671 47.9211 216.985 47.0561C217.561 46.6777 217.957 46.1731 218.443 45.7226C218.713 45.4703 218.713 45.0559 218.461 44.7856C218.209 44.5153 217.795 44.5153 217.525 44.7676C217.093 45.164 216.769 45.6325 216.265 45.9569C215.275 46.6056 213.835 46.6777 212.719 46.2272C211.585 45.7767 210.523 44.8036 210.901 43.5062C210.955 43.344 211.081 43.1998 211.225 43.0917C211.531 42.8755 211.585 42.461 211.369 42.1547C211.153 41.8663 210.721 41.7943 210.433 42.0105Z" fill="white"/>
<path d="M302.786 57.8593C298.304 62.7607 297.494 67.3739 298.826 70.7977C300.176 74.2755 303.758 76.6181 308.258 76.8884C309.77 76.9785 311.39 76.6001 312.812 76.1136C316.142 74.9783 318.23 72.8339 319.796 70.239C321.308 67.7523 322.334 64.815 323.54 62.0219C323.684 61.6795 323.54 61.2831 323.198 61.1389C322.856 60.9948 322.46 61.1389 322.316 61.4813C321.128 64.2384 320.12 67.1036 318.644 69.5543C317.222 71.8969 315.35 73.843 312.362 74.8522C311.102 75.2846 309.662 75.645 308.33 75.5549C304.406 75.3207 301.238 73.3385 300.05 70.3111C298.844 67.2297 299.726 63.1392 303.758 58.7423C304.01 58.472 303.992 58.0575 303.722 57.8052C303.452 57.571 303.02 57.589 302.786 57.8593Z" fill="white"/>
<path d="M325.664 61.9192C325.664 61.9192 315.908 53.2336 313.172 50.1882C305.054 41.1422 320.534 33.0692 324.692 45.3949C326.996 52.2245 325.898 57.5944 325.664 61.9192Z" fill="white"/>
<path d="M318.844 69.4565C323.47 67.0238 329.176 63.4379 331.282 58.6445C332.326 56.2839 331.57 52.8781 328.258 54.3197C325.666 55.455 324.334 57.9418 323.11 60.2483C321.814 62.7171 318.844 69.4565 318.844 69.4565Z" fill="white"/>
<path d="M343.408 159.682C350.716 150.077 353.362 136.094 351.13 124.111C348.664 110.884 340.042 98.5943 327.496 94.4858C321.52 92.5216 315.094 94.9543 312.79 100.829C310.486 106.685 313.78 112.38 319.036 115.767C327.046 120.939 331.096 123.156 333.67 129.841C336.586 137.409 337.144 146.095 333.526 153.285C333.364 153.609 333.49 154.024 333.832 154.186C334.174 154.348 334.57 154.222 334.732 153.88C338.512 146.347 337.972 137.265 334.93 129.336C332.248 122.363 328.108 119.984 319.774 114.614C315.076 111.587 311.998 106.541 314.05 101.315C316.084 96.1256 321.79 94.0353 327.082 95.7652C339.178 99.7296 347.44 111.623 349.816 124.345C351.994 135.968 349.438 149.537 342.346 158.853C342.112 159.142 342.184 159.574 342.472 159.808C342.76 160.043 343.174 159.988 343.408 159.682Z" fill="white"/>
<path d="M328.536 161.399C327.69 161.345 326.79 161.29 325.944 161.128C324.594 160.894 323.316 160.425 322.308 159.398C320.742 157.795 321.408 154.965 323.244 153.956C324.324 153.362 325.764 153.434 326.916 153.596C328.716 153.83 330.642 154.263 332.352 154.839C332.712 154.965 332.892 155.344 332.784 155.704C332.658 156.065 332.28 156.245 331.92 156.137C330.282 155.578 328.446 155.182 326.736 154.947C325.854 154.839 324.72 154.695 323.892 155.164C322.776 155.776 322.308 157.488 323.262 158.479C324.054 159.29 325.08 159.633 326.16 159.831C327.366 160.047 328.626 160.047 329.76 160.173C330.03 160.209 330.174 160.335 330.264 160.462C330.354 160.588 330.408 160.732 330.408 160.912C330.408 161.02 330.372 161.164 330.282 161.308C330.21 161.417 330.048 161.579 329.994 161.669C329.868 161.849 329.76 162.029 329.634 162.209C329.22 162.804 328.77 163.363 328.284 163.885C327.942 164.264 327.6 164.624 327.258 165.003C326.556 165.777 325.404 167.147 324.9 168.553C324.63 169.309 324.54 170.084 325.008 170.697C325.152 170.877 325.386 170.931 325.62 170.949C325.962 170.967 326.304 170.913 326.574 170.805C327.348 170.517 328.032 169.94 328.68 169.273C329.4 168.553 330.066 167.76 330.696 167.111C331.11 166.696 331.506 166.228 331.902 165.795C331.92 165.759 332.208 165.435 332.28 165.381C332.604 165.111 332.91 165.219 333 165.255C333.18 165.327 333.288 165.453 333.36 165.561C333.468 165.723 333.504 165.904 333.468 166.102C333.45 166.246 333.36 166.444 333.162 166.624C333.036 166.751 332.82 166.895 332.73 167.021C332.388 167.507 332.064 168.048 331.758 168.571C331.272 169.417 330.66 170.355 330.3 171.328C329.994 172.157 329.904 173.021 330.372 173.886C330.48 174.085 330.66 174.139 330.858 174.121C331.074 174.103 331.308 174.031 331.524 173.959C332.82 173.436 333.63 171.976 334.386 170.841C334.71 170.355 335.052 169.868 335.304 169.345C335.412 169.147 335.484 168.931 335.592 168.733C335.646 168.625 335.79 168.336 335.826 168.3C336.132 167.904 336.51 168.03 336.636 168.084C336.69 168.102 337.194 168.318 337.014 168.913C336.6 170.3 335.862 171.886 335.538 173.436C335.268 174.787 335.34 176.121 336.456 177.238C336.996 177.779 337.644 177.563 338.22 177.166C338.976 176.643 339.66 175.797 340.002 175.148C341.658 172.066 342.414 168.156 341.298 164.768C341.136 164.282 340.938 163.489 340.65 162.822C340.506 162.498 340.344 162.191 340.128 162.047C339.822 161.831 339.732 161.417 339.948 161.11C340.164 160.804 340.578 160.714 340.884 160.93C341.28 161.2 341.622 161.687 341.892 162.282C342.198 162.984 342.414 163.813 342.594 164.354C343.836 168.084 343.026 172.391 341.208 175.797C340.686 176.77 339.57 178.103 338.364 178.662C337.392 179.094 336.384 179.076 335.52 178.229C334.098 176.842 333.882 175.184 334.17 173.508C333.558 174.247 332.874 174.896 332.028 175.238C331.02 175.634 329.832 175.688 329.202 174.571C328.518 173.346 328.608 172.102 329.04 170.895C329.058 170.841 329.076 170.787 329.094 170.733C328.446 171.31 327.762 171.814 327.024 172.084C326.502 172.283 325.782 172.391 325.152 172.265C324.648 172.175 324.198 171.922 323.892 171.526C323.136 170.535 323.136 169.327 323.568 168.102C324.126 166.534 325.404 164.967 326.196 164.102C326.538 163.723 326.88 163.363 327.222 162.984C327.708 162.462 328.14 161.939 328.536 161.399Z" fill="white"/>
<path d="M370.851 85.768C417.777 95.2825 432.249 124.619 430.053 147.108C427.929 168.786 411.009 182.517 393.225 192.951C371.841 205.475 344.643 206.34 320.559 209.457C275.001 215.368 218.031 227.982 188.187 265.572C180.951 274.672 180.321 286.421 185.343 296.638C190.005 306.098 199.527 314.244 213.189 317.667C233.475 322.749 262.923 317.415 298.941 290.241C299.247 290.007 299.301 289.592 299.067 289.286C298.833 288.98 298.419 288.925 298.113 289.16C262.563 315.973 233.511 321.361 213.495 316.352C200.283 313.036 191.049 305.198 186.549 296.043C181.761 286.313 182.337 275.104 189.231 266.436C218.859 229.117 275.487 216.701 320.721 210.827C344.985 207.673 372.363 206.754 393.909 194.14C412.089 183.49 429.243 169.399 431.403 147.27C433.653 124.313 419.037 94.1833 371.121 84.4705C370.761 84.3984 370.401 84.6327 370.311 85.0111C370.239 85.3175 370.473 85.6779 370.851 85.768Z" fill="white"/>
<path d="M278.156 1.62427L296.624 5.12015L281.666 20.1128L278.156 1.62427Z" fill="#FFC700"/>
<path d="M395.432 313.571C395.702 313.571 395.936 313.427 396.08 313.21C396.206 312.976 396.206 312.706 396.08 312.471L386.018 295.407C385.892 295.19 385.64 295.046 385.388 295.046C385.136 295.046 384.884 295.19 384.758 295.407L375.02 312.219C374.894 312.453 374.894 312.724 375.02 312.958C375.146 313.192 375.38 313.318 375.65 313.336L395.432 313.571ZM376.91 311.877L394.136 312.093L385.388 297.245L376.91 311.877Z" fill="white"/>
<path d="M152.34 14.374C149.262 14.374 146.778 16.8788 146.778 19.9422C146.778 23.0236 149.28 25.5104 152.34 25.5104C155.418 25.5104 157.902 23.0056 157.902 19.9422C157.902 16.8788 155.4 14.374 152.34 14.374ZM152.34 15.7436C154.662 15.7436 156.552 17.6356 156.552 19.9602C156.552 22.2848 154.662 24.1769 152.34 24.1769C150.018 24.1769 148.128 22.2848 148.128 19.9602C148.128 17.6356 150.018 15.7436 152.34 15.7436Z" fill="white"/>
<path d="M232.76 286.083C235.46 286.083 237.656 288.281 237.656 290.984C237.656 293.687 235.46 295.886 232.76 295.886C230.06 295.886 227.864 293.687 227.864 290.984C227.882 288.281 230.06 286.083 232.76 286.083Z" fill="white"/>
<path d="M217.25 119.769C219.95 119.769 222.146 121.967 222.146 124.67C222.146 127.373 219.95 129.572 217.25 129.572C214.55 129.572 212.354 127.373 212.354 124.67C212.354 121.949 214.55 119.769 217.25 119.769Z" fill="white"/>
<path d="M385.86 144.033C382.782 144.033 380.298 146.538 380.298 149.601C380.298 152.683 382.8 155.17 385.86 155.17C388.938 155.17 391.422 152.665 391.422 149.601C391.422 146.538 388.938 144.033 385.86 144.033ZM385.86 145.385C388.182 145.385 390.072 147.277 390.072 149.601C390.072 151.926 388.182 153.818 385.86 153.818C383.538 153.818 381.648 151.926 381.648 149.601C381.648 147.277 383.538 145.385 385.86 145.385Z" fill="white"/>
<path d="M159.645 74.1898C159.789 73.5793 160.179 73.0609 160.725 72.7461C161.271 72.4313 161.928 72.3486 162.552 72.514C166.176 73.4743 173.052 75.2965 176.664 76.2537C177.288 76.419 177.831 76.8197 178.173 77.3698C178.515 77.92 178.629 78.5719 178.485 79.1824C177.006 85.4534 172.935 102.714 171.456 108.985C171.312 109.596 170.922 110.114 170.376 110.429C169.83 110.744 169.173 110.827 168.549 110.661C164.925 109.701 158.061 107.882 154.437 106.922C153.813 106.756 153.27 106.356 152.928 105.805C152.586 105.255 152.472 104.603 152.616 103.993C154.095 97.7218 158.169 80.4481 159.645 74.1898Z" fill="white"/>
<path d="M162.558 76.6359C162.729 76.2734 163.052 75.9702 163.453 75.7879C163.854 75.6056 164.305 75.5653 164.705 75.6713C165.697 75.9342 166.989 76.2765 167.981 76.5394C168.381 76.6454 168.693 76.8903 168.857 77.2199C169.016 77.5507 169.013 77.9386 168.842 78.3011C168.413 79.2106 167.851 80.4021 167.422 81.3115C167.252 81.6719 166.928 81.9772 166.527 82.1595C166.126 82.3419 165.675 82.3821 165.275 82.2761C164.283 82.0133 162.991 81.6709 161.999 81.408C161.599 81.302 161.287 81.0571 161.123 80.7275C160.964 80.3968 160.967 80.0088 161.138 79.6463C161.567 78.7368 162.129 77.5454 162.558 76.6359Z" fill="white"/>
<path d="M159.895 85.7094C159.895 86.6592 159.895 87.9524 159.895 88.9043C159.895 89.4745 160.081 90.0872 160.417 90.6109C160.75 91.1313 161.203 91.5182 161.677 91.6857C162.454 91.9602 163.507 92.3323 164.284 92.6068C164.755 92.7733 165.208 92.7065 165.544 92.4224C165.877 92.1373 166.066 91.655 166.066 91.0847C166.066 90.1349 166.066 88.8417 166.066 87.8898C166.066 87.3196 165.877 86.7058 165.544 86.1832C165.208 85.6617 164.758 85.2759 164.284 85.1084C163.507 84.8339 162.454 84.4618 161.677 84.1873C161.206 84.0208 160.75 84.0866 160.417 84.3717C160.084 84.6568 159.895 85.137 159.895 85.7094ZM161.353 86.2246C161.353 86.1207 161.386 86.0327 161.446 85.9818C161.506 85.9288 161.59 85.9182 161.674 85.9479C162.451 86.2225 163.504 86.5945 164.281 86.8691C164.365 86.8987 164.449 86.9687 164.509 87.0641C164.569 87.1595 164.602 87.2687 164.602 87.3726C164.602 88.3223 164.602 89.6155 164.602 90.5674C164.602 90.6713 164.569 90.7593 164.509 90.8101C164.449 90.861 164.365 90.8737 164.281 90.8441C163.504 90.5695 162.451 90.1975 161.674 89.9229C161.587 89.8922 161.506 89.8233 161.446 89.7279C161.386 89.6325 161.353 89.5233 161.353 89.4194V86.2246Z" fill="white"/>
<path d="M82.2504 274.175L88.9904 277.565L92.3604 278.837L90.1604 286.621L86.7904 285.349L75.6504 282.449L72.1804 281.139L72.4104 269.208L72.8454 263.166L83.3054 264.177L82.8704 270.219L82.2504 274.175Z" fill="#FFC700"/>
<path d="M82.6103 267.96C81.7163 268.113 80.7983 268.037 79.9033 268.18C79.2263 268.28 78.7643 268.889 78.8723 269.533C78.9703 270.179 79.6023 270.613 80.2783 270.503C81.1833 270.359 82.1113 270.434 83.0153 270.281C83.6803 270.162 84.1423 269.553 84.0253 268.92C83.9173 268.275 83.2853 267.84 82.6103 267.96Z" fill="white"/>
<path d="M82.1324 272.16C81.2214 272.439 80.3174 272.786 79.3944 273.048C78.7364 273.233 78.3604 273.891 78.5464 274.508C78.7324 275.124 79.4174 275.486 80.0654 275.301C81.0084 275.038 81.9224 274.69 82.8524 274.398C83.4994 274.204 83.8644 273.539 83.6684 272.923C83.4724 272.307 82.7794 271.966 82.1324 272.16Z" fill="white"/>
<path d="M110.824 271.768L117.031 276.021L120.201 277.796L116.777 283.817L113.607 282.042L102.923 277.264L99.6586 275.436L101.765 265.542L103.15 260.599L113.451 263.66L112.066 268.602L110.824 271.768Z" fill="#FFC700"/>
<path d="M113.218 265.865C112.306 265.732 111.442 265.369 110.532 265.226C109.846 265.111 109.21 265.554 109.114 266.211C109.008 266.866 109.484 267.485 110.172 267.591C111.092 267.736 111.966 268.101 112.888 268.237C113.568 268.331 114.204 267.888 114.288 267.238C114.374 266.579 113.896 265.969 113.218 265.865Z" fill="white"/>
<path d="M111.456 269.726C110.488 269.71 109.506 269.76 108.532 269.723C107.838 269.696 107.27 270.213 107.258 270.868C107.246 271.523 107.796 272.088 108.48 272.114C109.474 272.155 110.466 272.106 111.456 272.117C112.142 272.133 112.702 271.604 112.704 270.947C112.708 270.28 112.144 269.732 111.456 269.726Z" fill="white"/>
<path d="M114.785 93.6399C105.045 79.1858 84.5125 74.1571 68.9205 82.4209C53.3365 90.6804 48.5915 109.096 58.3365 123.557L114.785 93.6399Z" fill="#FFC700"/>
<path d="M106.445 61.3061C106.903 67.3608 102.624 73.2533 96.3669 71.4916C95.3219 71.199 94.3659 70.5217 93.5559 69.8412C91.6039 68.1876 90.8449 66.0792 90.5509 63.7737C90.2509 61.3347 90.4679 58.673 90.4919 56.0527C90.4929 55.6806 90.1649 55.3785 89.7659 55.369C89.3629 55.369 89.0219 55.6647 89.0209 56.0368C88.9949 58.7112 88.7759 61.4269 89.0829 63.9232C89.4049 66.5562 90.3179 68.9381 92.5509 70.8333C93.5179 71.657 94.6779 72.4392 95.9249 72.7922C103.173 74.8274 108.422 68.248 107.903 61.2297C107.873 60.8577 107.524 60.581 107.122 60.6033C106.724 60.616 106.42 60.9467 106.445 61.3061Z" fill="white"/>
<path d="M90.5648 54.6118C89.3148 53.9779 87.9688 53.1023 87.4528 51.7455C86.7208 49.8449 87.7688 47.284 89.9948 47.3709C91.0188 47.4069 91.8608 48.0535 92.7468 48.5221C93.0988 48.715 93.5268 48.5793 93.7108 48.2337C93.8948 47.8882 93.7468 47.4578 93.3948 47.2649C92.3188 46.6936 91.2628 45.9993 90.0268 45.9494C86.7828 45.8127 85.0688 49.4411 86.1248 52.2151C86.7768 53.9143 88.3788 55.0877 89.9648 55.8742C90.3228 56.0534 90.7508 55.9177 90.9208 55.5658C91.0768 55.2075 90.9228 54.7909 90.5648 54.6118Z" fill="white"/>
<path d="M92.1496 43.6634C90.9196 46.4883 97.0476 57.4095 107.056 61.3453C116.074 64.8973 123.554 51.4926 114.448 44.3683C103.692 35.9498 92.1496 43.6634 92.1496 43.6634Z" fill="white"/>
<path d="M93.8597 48.3588C92.9757 47.9242 92.0457 47.6337 91.0737 47.4398C88.5837 46.9193 85.8737 48.3291 86.7297 51.2929C87.4257 53.7383 92.9057 57.02 89.2957 59.5725C86.8097 61.3152 83.3817 59.4443 81.2917 57.8511C76.3137 54.0711 74.3757 47.6613 75.8417 42.0221C77.2997 36.3628 84.3037 33.0248 90.0237 34.2534C94.9437 35.3165 100.026 39.4739 99.0957 44.8449L93.8597 48.3588Z" fill="white"/>
<path d="M133.329 104.798C126.471 109.034 118.399 113.547 106.475 118.957C101.381 121.295 95.5425 121.279 90.5725 118.901C83.6585 115.598 74.0405 110.431 68.5685 105.012C66.8125 103.265 65.4945 101.505 64.8705 99.7755C64.2965 98.1653 64.3425 96.5923 65.2605 95.085C68.6965 89.5019 73.9285 88.9518 79.3485 90.6234C85.0185 92.3692 90.9105 96.5064 95.3545 100.168C100.599 104.486 107.771 105.792 114.345 103.621C122.101 101.062 131.189 98.0551 131.189 98.0551C131.563 97.9268 131.779 97.5166 131.671 97.1445C131.549 96.7767 131.139 96.5711 130.761 96.6856C130.761 96.6856 121.673 99.6928 113.917 102.252C107.815 104.265 101.159 103.057 96.2965 99.0578C91.7145 95.2885 85.6425 91.0559 79.8045 89.256C73.7165 87.3819 67.8785 88.1006 64.0265 94.3493C61.7805 97.9978 63.5805 102.1 67.5385 106.028C73.1025 111.554 82.8865 116.821 89.9265 120.191C95.2845 122.751 101.583 122.777 107.063 120.248C119.067 114.799 127.177 110.259 134.073 105.997C134.423 105.786 134.521 105.336 134.319 105.008C134.107 104.697 133.665 104.591 133.329 104.798Z" fill="white"/>
<path d="M131.398 98.5426C131.374 94.1446 132.978 89.7562 136.51 86.7755C137.254 86.1459 138.642 85.3901 139.902 85.1749C140.522 85.0657 141.098 85.0742 141.51 85.389C141.758 85.5947 141.922 85.9116 141.994 86.3801C142.142 87.297 141.662 87.8959 141.034 88.357C140.19 88.9708 139.094 89.399 138.274 89.8919C135.93 91.306 134.35 93.5998 134.27 96.3399C134.254 96.7321 134.57 97.0628 134.966 97.0427C135.358 97.0427 135.69 96.7215 135.698 96.3176C135.758 94.0938 137.07 92.2663 138.97 91.1141C139.814 90.6042 140.958 90.1421 141.838 89.5029C142.914 88.7079 143.646 87.6712 143.41 86.1067C143.274 85.2332 142.906 84.6449 142.426 84.257C141.946 83.869 141.33 83.6983 140.654 83.674C138.926 83.6485 136.702 84.77 135.614 85.6774C131.714 88.9528 129.934 93.7599 129.954 98.5935C129.958 98.9888 130.278 99.2994 130.674 99.2793C131.078 99.2708 131.402 98.938 131.398 98.5426Z" fill="white"/>
<path d="M135.796 96.8103C138.388 94.3554 141.964 91.9842 145.536 92.8534C146.412 93.0654 147.292 93.3091 147.884 94.0162C148.636 94.9044 148.792 96.4044 147.516 96.9079C147.048 97.0828 146.516 96.9566 145.98 96.7987C145.26 96.5803 144.544 96.2899 143.936 96.1828C142.484 95.9104 140.98 96.3153 139.548 96.6174C139.16 96.7011 138.888 97.0838 138.956 97.4686C139.024 97.8534 139.396 98.1099 139.784 98.0261C141.044 97.759 142.34 97.3626 143.624 97.5979C144.32 97.7293 145.172 98.1141 146 98.3081C146.7 98.4713 147.388 98.4872 148.012 98.254C150.312 97.3732 150.38 94.6935 149.028 93.0865C148.244 92.1516 147.116 91.7541 145.952 91.4859C141.908 90.5001 137.784 93.0335 134.848 95.8182C134.556 96.0938 134.528 96.5464 134.8 96.8389C135.052 97.0764 135.504 97.0859 135.796 96.8103Z" fill="white"/>
<path d="M139.522 97.9971C141.794 98.348 143.454 98.6119 144.674 100.78C144.874 101.123 145.026 101.604 145.026 102.072C145.026 102.383 144.95 102.714 144.638 102.883C144.406 103.012 144.162 102.89 143.906 102.777C143.442 102.568 142.986 102.267 142.622 102.126C141.27 101.558 139.79 101.53 138.322 101.598C137.926 101.618 137.602 101.951 137.606 102.346C137.61 102.742 137.93 103.052 138.326 103.032C139.586 102.973 140.858 102.957 142.018 103.453C142.466 103.638 143.046 104.042 143.626 104.238C144.198 104.423 144.774 104.431 145.294 104.15C145.966 103.779 146.314 103.17 146.426 102.502C146.562 101.662 146.298 100.705 145.93 100.065C144.446 97.4608 142.518 97.04 139.786 96.616C139.394 96.564 139.022 96.8269 138.946 97.2096C138.874 97.5721 139.122 97.9335 139.522 97.9971Z" fill="white"/>
<path d="M119.369 208.33C119.207 206.852 118.595 205.302 117.515 203.626L92.7108 164.919L91.5768 162.973C91.4328 162.739 91.2168 162.577 90.9648 162.505C90.7128 162.433 90.4248 162.487 90.2088 162.631L83.8548 166.523C83.4948 166.739 83.3148 167.19 83.4048 167.604L88.9488 190.742C89.7768 194.184 90.2628 197.265 90.4428 200.149C90.6588 203.644 90.6048 206.744 90.2808 209.609L89.2548 218.727C89.9208 218.655 90.6048 218.583 91.2708 218.511L92.2428 209.843C92.5848 206.852 92.6388 203.644 92.4048 200.022C92.2248 197.013 91.7208 193.824 90.8568 190.274L85.4748 167.839L90.3528 164.847L90.9828 165.929C90.9828 165.947 91.0008 165.947 91.0008 165.965L115.823 204.69C116.741 206.131 117.245 207.357 117.371 208.546C117.569 210.294 117.461 211.663 117.029 212.853L116.543 214.186C117.317 214.006 118.073 213.826 118.847 213.646L118.883 213.519C119.441 212.042 119.603 210.402 119.369 208.33ZM138.809 207.014C138.665 202.473 137.369 197.914 134.975 193.445L113.249 152.9C113.249 152.882 113.231 152.882 113.231 152.864L107.201 142.593C107.111 142.448 107.003 142.34 106.859 142.25L102.197 132.465C102.035 132.105 101.675 131.889 101.279 131.907L64.1268 132.97C63.8748 132.97 63.6408 133.078 63.4608 133.258C56.6568 139.908 52.8768 146.917 56.4948 159.477C56.4948 159.586 56.4948 159.694 56.5308 159.802L59.8248 171.244C59.8248 171.262 59.8428 171.262 59.8428 171.281L68.4288 196.743C69.1668 198.959 69.6348 200.761 69.9048 202.437C70.2648 204.744 70.4088 206.636 70.3728 208.348L70.1208 219.664L70.0848 221.124L69.4008 251.83L68.8608 259.831C68.8428 260.101 68.9328 260.353 69.1128 260.552C69.2928 260.75 69.5268 260.876 69.7968 260.894L85.8348 261.975C85.8528 261.975 85.8708 261.975 85.9068 261.975C86.4288 261.975 86.8608 261.579 86.8968 261.056L87.4368 253.055L91.1628 219.989L91.3248 218.511L92.2968 209.843C92.6388 206.852 92.6928 203.644 92.4588 200.022C92.2788 197.013 91.7748 193.824 90.9108 190.274L85.5288 167.839L90.4068 164.847L91.0368 165.929C91.0368 165.947 91.0548 165.947 91.0548 165.965L115.877 204.69C116.795 206.131 117.299 207.357 117.425 208.546C117.623 210.294 117.515 211.663 117.083 212.853L116.597 214.186L116.021 215.79L105.257 245.289L102.215 252.713C102.125 252.947 102.125 253.235 102.215 253.47C102.323 253.722 102.503 253.902 102.755 254.01L117.623 260.101C117.875 260.209 118.145 260.209 118.379 260.101C118.631 259.993 118.811 259.813 118.919 259.56L121.961 252.136L136.253 220.727C137.819 217.304 138.665 213.501 138.809 209.411C138.827 208.906 138.827 208.402 138.827 207.879C138.827 207.591 138.809 207.302 138.809 207.014ZM134.435 219.898L120.143 251.325C120.143 251.343 120.125 251.343 120.125 251.361L117.461 257.885L104.411 252.551L107.075 246.027C107.075 246.009 107.075 246.009 107.093 245.991L118.271 215.267L118.865 213.646L118.901 213.519C119.441 212.042 119.585 210.384 119.369 208.312C119.207 206.834 118.595 205.284 117.515 203.608L92.7108 164.919L91.5768 162.973C91.4328 162.739 91.2168 162.577 90.9648 162.505C90.7128 162.433 90.4248 162.487 90.2088 162.631L83.8548 166.523C83.4948 166.739 83.3148 167.19 83.4048 167.604L88.9488 190.742C89.7768 194.184 90.2628 197.265 90.4428 200.149C90.6588 203.644 90.6048 206.744 90.2808 209.609L89.2548 218.727L89.0928 220.187L85.4208 252.857C85.4208 252.875 85.4208 252.893 85.4208 252.893L84.9528 259.921L70.8948 258.984L71.3628 251.938C71.3628 251.92 71.3628 251.902 71.3628 251.902L72.0468 221.124L72.0828 219.664L72.3348 208.384C72.3708 206.546 72.2268 204.545 71.8488 202.113C71.5788 200.329 71.0928 198.401 70.3008 196.094L61.7328 170.65L58.6008 159.766C58.6188 159.694 58.6368 159.622 58.6548 159.531C58.6728 159.225 58.5648 158.937 58.3668 158.739C55.1268 147.35 58.3308 141.115 64.5768 134.916L100.703 133.871L105.329 143.566C105.419 143.764 105.581 143.926 105.779 144.016L111.521 153.801L133.229 194.346C135.479 198.545 136.685 202.815 136.829 207.05C136.847 207.537 136.847 208.023 136.847 208.51C136.847 209.032 136.829 209.537 136.793 210.042C136.595 213.609 135.803 216.907 134.435 219.898ZM119.369 208.33C119.207 206.852 118.595 205.302 117.515 203.626L92.7108 164.919L91.5768 162.973C91.4328 162.739 91.2168 162.577 90.9648 162.505C90.7128 162.433 90.4248 162.487 90.2088 162.631L83.8548 166.523C83.4948 166.739 83.3148 167.19 83.4048 167.604L88.9488 190.742C89.7768 194.184 90.2628 197.265 90.4428 200.149C90.6588 203.644 90.6048 206.744 90.2808 209.609L89.2548 218.727C89.9208 218.655 90.6048 218.583 91.2708 218.511L92.2428 209.843C92.5848 206.852 92.6388 203.644 92.4048 200.022C92.2248 197.013 91.7208 193.824 90.8568 190.274L85.4748 167.839L90.3528 164.847L90.9828 165.929C90.9828 165.947 91.0008 165.947 91.0008 165.965L115.823 204.69C116.741 206.131 117.245 207.357 117.371 208.546C117.569 210.294 117.461 211.663 117.029 212.853L116.543 214.186C117.317 214.006 118.073 213.826 118.847 213.646L118.883 213.519C119.441 212.042 119.603 210.402 119.369 208.33Z" fill="white"/>
<path d="M89.7435 57.109C91.1545 61.6501 88.2125 66.7572 84.3015 68.945C82.2055 70.1174 78.8475 70.7428 77.0265 68.5772C75.3895 66.6501 77.6445 63.2348 78.8865 61.8578C79.2265 61.4794 79.7125 60.9007 80.2115 60.73C80.3885 60.6781 79.8845 60.9038 79.7165 60.9791C79.5255 61.0628 79.3435 61.1699 79.1525 61.2536C78.6645 61.4868 78.3425 61.6056 77.8115 61.7614C76.3105 62.1949 74.1285 62.2935 72.8875 61.0862C71.5485 59.7951 72.2965 58.2273 73.5535 57.2977C74.0055 56.9712 74.5055 56.667 75.0095 56.4412C75.2535 56.3246 75.4075 56.2812 75.6555 56.243C75.7635 56.2165 76.0865 56.2706 75.9975 56.2102C74.1425 54.9095 69.8535 54.5862 70.7115 51.1932C71.1605 49.4293 73.2665 48.7594 74.8785 48.8177C76.4445 48.893 78.0065 49.5025 79.4565 50.06C80.9935 50.6388 82.6315 51.207 83.9705 52.1917L89.7435 57.109Z" fill="white"/>
<path d="M108.479 60.2965C110.458 60.659 112.394 61.8632 113.854 63.2295C114.617 63.9471 115.389 64.9944 115.172 66.1C114.636 68.7617 110.667 67.3614 109.239 66.3162C109.036 66.1647 109.569 66.6607 109.742 66.8367C110.179 67.2883 110.359 67.4483 110.796 67.8999C111.911 69.0871 113.457 71.2208 112.204 72.8416C111.301 73.9737 109.375 72.6593 108.575 71.9819C108.256 71.7 107.944 71.4021 107.662 71.0799C107.571 70.9802 107.445 70.6537 107.428 70.7799C107.385 71.0088 107.65 71.7636 107.685 71.9904C107.85 72.9285 107.832 74.1072 107.232 74.9012C106.676 75.6389 105.866 75.3782 105.221 74.8301C104.421 74.1528 103.848 72.566 103.879 71.489C103.897 70.923 104.433 70.4057 104.732 69.9891C105.184 69.3563 105.492 68.6567 105.839 67.956C106.971 65.6474 107.802 62.797 107.762 60.1746L108.479 60.2965Z" fill="white"/>
<path d="M135.353 110.265C141.673 110.589 147.809 110.59 150.637 110.065C151.035 109.995 151.301 109.607 151.227 109.217C151.153 108.827 150.755 108.564 150.357 108.634C147.609 109.14 141.605 109.124 135.441 108.813C135.037 108.793 134.685 109.11 134.667 109.505C134.649 109.901 134.949 110.245 135.353 110.265Z" fill="white"/>
<path d="M164.842 117.582C164.762 117.593 164.361 117.669 163.993 117.771C162.602 118.144 160.023 118.926 156.688 119.848C149.972 121.706 140.211 124.082 130.915 124.625C124.638 124.989 118.556 124.517 113.733 122.509C113.376 122.354 113.2 121.954 113.352 121.589C113.515 121.233 113.931 121.072 114.288 121.226C118.921 123.16 124.766 123.594 130.815 123.247C139.997 122.713 149.644 120.345 156.279 118.521C160.097 117.466 162.942 116.575 164.147 116.3C164.583 116.202 164.89 116.198 165.014 116.221C169.265 116.993 172.948 115.11 175.298 111.983C178.89 107.188 179.391 99.4795 174.126 93.4693C173.866 93.1725 173.896 92.7379 174.202 92.4919C174.497 92.2375 174.95 92.2736 175.21 92.5704C180.974 99.1339 180.385 107.569 176.444 112.819C173.816 116.333 169.635 118.434 164.842 117.582Z" fill="white"/>
<path d="M78.5701 127.578C78.6061 127.207 78.6421 126.841 78.6541 126.47C78.7141 125.076 78.7021 123.682 78.7741 122.294C78.8221 121.324 78.9301 120.359 78.7741 119.389C78.7141 118.981 78.9661 118.589 79.3621 118.52C79.7461 118.451 80.1181 118.727 80.1901 119.135C80.3581 120.216 80.2621 121.292 80.2141 122.373C80.1421 123.762 80.1541 125.15 80.0941 126.534C80.0821 126.984 80.0341 127.435 79.9861 127.88C79.9741 128.049 79.9741 128.076 79.9741 128.182C80.0101 128.283 80.0461 128.405 80.0461 128.468C80.0581 128.664 80.0101 128.829 79.9141 128.961C79.8181 129.109 79.6261 129.337 79.1821 129.295C78.2221 129.2 76.9141 128.341 76.3021 128.023C74.2141 126.936 72.2941 125.77 70.3621 124.636C69.8101 124.313 69.2221 124.006 68.6701 123.682C68.5741 124.059 68.5741 124.44 68.5381 124.822C68.4901 125.437 68.4661 126.057 68.3821 126.671C68.2741 127.461 68.0821 128.246 68.0101 129.03C67.9741 129.443 67.6141 129.745 67.2181 129.703C66.8221 129.661 66.5341 129.29 66.5821 128.876C66.6661 128.071 66.8581 127.265 66.9541 126.465C67.0381 125.876 67.0501 125.288 67.0981 124.695C67.1581 123.99 67.1821 123.285 67.5301 122.596C67.5901 122.41 67.6981 122.14 67.8421 122.039C67.9621 121.949 68.1421 121.864 68.4301 121.891C68.5381 121.901 68.7181 121.954 68.8981 122.06C69.0541 122.151 69.3181 122.336 69.3541 122.363C69.9061 122.691 70.5061 122.999 71.0581 123.322C72.9661 124.445 74.8741 125.601 76.9381 126.677C77.2981 126.857 77.9461 127.302 78.5701 127.578ZM67.5421 122.606C67.5181 122.675 67.4941 122.781 67.4941 122.781C67.4941 122.781 67.5061 122.707 67.5421 122.606Z" fill="white"/>
<path d="M169.211 93.4489C168.869 92.8542 168.527 92.1875 168.311 91.5387C168.023 90.5837 168.005 89.6647 168.455 88.9078C168.779 88.3492 169.193 88.0609 169.625 87.9347C170.039 87.8086 170.507 87.8446 170.957 88.0068C172.001 88.3672 173.099 89.4484 173.621 90.0251C173.891 90.3134 174.827 91.4486 175.133 91.7009C175.439 91.9532 175.493 92.4037 175.241 92.7281C174.989 93.0344 174.539 93.0885 174.215 92.8362C173.873 92.5659 172.829 91.3225 172.541 91.0162C172.181 90.6197 171.515 89.935 170.831 89.5385C170.561 89.3944 170.273 89.2502 170.039 89.3403C169.913 89.3763 169.805 89.4845 169.697 89.6647C169.445 90.0791 169.535 90.5837 169.697 91.1063C170.021 92.1334 170.723 93.1605 171.155 93.7912C171.425 94.1877 171.731 94.5481 172.001 94.9445C172.091 95.0707 172.307 95.2689 172.397 95.395C172.505 95.5572 172.559 95.7194 172.559 95.8455C172.577 96.0437 172.523 96.2059 172.415 96.3501C172.325 96.4762 172.163 96.6204 171.875 96.6744C171.749 96.6924 171.515 96.6744 171.245 96.5123C170.975 96.3501 170.507 95.8996 170.399 95.8095C169.823 95.377 169.265 94.9085 168.563 94.8004C168.005 94.7103 167.609 94.7103 167.411 94.9806C167.213 95.2509 167.285 95.6653 167.501 96.1699C167.897 97.143 168.599 97.8818 169.319 98.6026C170.147 99.4315 171.029 100.224 171.659 101.215C171.857 101.522 171.785 101.738 171.749 101.846C171.659 102.116 171.461 102.369 171.029 102.351C170.975 102.351 170.885 102.333 170.795 102.315C170.741 102.297 170.543 102.189 170.507 102.171C170.381 102.116 170.255 102.062 170.129 101.99C169.751 101.81 169.373 101.63 168.977 101.486C168.455 101.288 167.645 101.071 166.907 101.089C166.385 101.089 165.881 101.197 165.683 101.702C165.647 101.81 165.665 101.936 165.701 102.044C165.773 102.261 165.881 102.459 165.989 102.639C166.601 103.702 167.861 104.459 168.905 105.036C169.355 105.288 169.823 105.504 170.327 105.63C170.723 105.739 170.957 106.135 170.849 106.513C170.741 106.91 170.345 107.144 169.967 107.036C169.337 106.874 168.761 106.603 168.203 106.297C166.961 105.594 165.485 104.639 164.747 103.36C164.387 102.729 164.063 101.918 164.351 101.161C164.693 100.26 165.431 99.8099 166.331 99.6658C167.033 99.5576 167.825 99.6477 168.527 99.8099L168.329 99.6117C167.465 98.7467 166.655 97.8457 166.187 96.6925C165.737 95.5572 165.845 94.6382 166.295 94.0615C166.745 93.4669 167.609 93.1245 168.851 93.3407C168.959 93.3768 169.085 93.4128 169.211 93.4489Z" fill="white"/>
<path d="M178.632 237.056L164.028 249.856L158.993 232.777L178.632 237.056Z" fill="#FFC700"/>
<path d="M33.2044 173.741L16.5964 163.062L31.7014 154.523L33.2044 173.741Z" fill="white"/>
<path d="M70.1053 219.943C63.5533 219.907 57.2713 219.456 51.4393 218.537C45.7513 217.636 40.4413 215.996 35.9053 213.672C38.9473 210.626 41.3593 207.257 42.9793 203.635C44.3293 200.661 45.3373 196.319 44.9413 192.246C44.6713 189.471 43.7533 186.822 41.8633 184.786C39.8653 182.605 36.7513 181.11 32.1433 180.966C28.5073 180.839 25.8433 181.849 23.9173 183.47C19.4713 187.2 19.0573 194.246 20.2813 198.517C22.0993 204.914 26.9053 210.176 33.4933 213.978C25.5013 221.33 13.7293 226.592 1.05729 228.701C0.661294 228.773 0.391294 229.151 0.463294 229.547C0.535294 229.944 0.913294 230.214 1.29129 230.142C14.4493 227.944 26.6173 222.412 34.8253 214.717C39.5773 217.222 45.1753 219.024 51.2233 219.961C57.1273 220.88 63.4633 221.348 70.0873 221.384C70.7353 221.384 71.4013 221.384 72.0673 221.384L72.1033 219.925C71.4193 219.943 70.7713 219.943 70.1053 219.943ZM34.5733 212.969C28.1293 209.365 23.4313 204.319 21.6673 198.139C20.1193 192.697 21.3973 182.101 32.0893 182.443C36.2113 182.587 39.0013 183.849 40.7833 185.795C42.4573 187.597 43.2313 189.958 43.4833 192.408C43.8613 196.21 42.9073 200.265 41.6473 203.058C40.0453 206.626 37.6153 209.96 34.5733 212.969ZM193.639 155.936C192.217 147.412 186.421 139.249 175.171 132.726C174.829 132.528 174.379 132.636 174.181 132.996C173.983 133.339 174.091 133.789 174.451 133.987C185.233 140.24 190.849 148.025 192.217 156.17C194.269 168.442 186.709 181.488 173.047 191.417C164.353 197.742 152.365 203.473 138.829 208.122C138.181 208.338 137.515 208.572 136.849 208.788C136.849 209.311 136.831 209.816 136.795 210.32C137.479 210.104 138.145 209.87 138.811 209.653C152.707 204.932 165.019 199.058 173.911 192.606C188.077 182.317 195.763 168.676 193.639 155.936ZM91.2913 218.772C90.6253 218.844 89.9413 218.916 89.2753 218.988L89.1133 220.447C89.7793 220.375 90.4633 220.303 91.1293 220.231C99.4093 219.312 107.779 217.889 115.987 216.051C116.761 215.87 117.517 215.708 118.291 215.528L118.885 213.906C118.129 214.086 117.355 214.267 116.581 214.447C108.229 216.357 99.6973 217.834 91.2913 218.772Z" fill="white"/>
<path d="M44.5656 27.4768L46.9596 22.5033C47.0676 22.269 46.9776 21.9627 46.7256 21.8546C46.4916 21.7464 46.1856 21.8366 46.0776 22.0888L43.6836 27.0624C43.5756 27.2966 43.6656 27.6029 43.9176 27.7111C44.1516 27.8192 44.4396 27.7291 44.5656 27.4768ZM56.5176 27.0624L54.1236 22.0888C54.0156 21.8546 53.7096 21.7464 53.4756 21.8546C53.2416 21.9627 53.1336 22.269 53.2416 22.5033L55.6356 27.4768C55.7436 27.7111 56.0496 27.8192 56.2836 27.7111C56.5356 27.5849 56.6436 27.2966 56.5176 27.0624ZM63.6456 17.4397L58.2636 16.2143C57.9936 16.1603 57.7416 16.3224 57.6876 16.5747C57.6336 16.845 57.7956 17.0973 58.0476 17.1514L63.4296 18.3767C63.6996 18.4308 63.9516 18.2686 64.0056 18.0163C64.0776 17.746 63.9156 17.4937 63.6456 17.4397ZM36.7716 18.3767L42.1536 17.1514C42.4236 17.0973 42.5856 16.827 42.5136 16.5747C42.4596 16.3044 42.1896 16.1422 41.9376 16.2143L36.5556 17.4397C36.2856 17.4937 36.1236 17.764 36.1956 18.0163C36.2496 18.2866 36.5196 18.4488 36.7716 18.3767ZM39.0216 6.60965L43.3236 10.0515C43.5396 10.2136 43.8456 10.1776 44.0076 9.97939C44.1696 9.76315 44.1336 9.45682 43.9356 9.29464L39.6336 5.85281C39.4176 5.69063 39.1116 5.72667 38.9496 5.92489C38.7876 6.14113 38.8056 6.44747 39.0216 6.60965ZM60.5676 5.85281L56.2656 9.29464C56.0496 9.45682 56.0136 9.76315 56.1936 9.97939C56.3556 10.1956 56.6616 10.2317 56.8776 10.0515L61.1796 6.60965C61.3956 6.44747 61.4316 6.14113 61.2516 5.92489C61.0896 5.72667 60.7836 5.69063 60.5676 5.85281ZM49.6236 1.04147V6.55559C49.6236 6.82589 49.8396 7.04214 50.1096 7.04214C50.3796 7.04214 50.5956 6.82589 50.5956 6.55559V1.04147C50.5956 0.771174 50.3796 0.554932 50.1096 0.554932C49.8396 0.554932 49.6236 0.771174 49.6236 1.04147Z" fill="white"/>
<path d="M369.705 47.1489L372.099 42.1754C372.207 41.9411 372.117 41.6348 371.865 41.5266C371.631 41.4185 371.325 41.5086 371.217 41.7609L368.823 46.7344C368.715 46.9687 368.805 47.275 369.057 47.3831C369.291 47.4913 369.579 47.3831 369.705 47.1489ZM381.657 46.7164L379.263 41.7429C379.155 41.5086 378.849 41.4005 378.615 41.5086C378.381 41.6167 378.273 41.9231 378.381 42.1573L380.775 47.1309C380.883 47.3651 381.189 47.4732 381.423 47.3651C381.675 47.257 381.783 46.9687 381.657 46.7164ZM388.785 37.0937L383.403 35.8684C383.133 35.8143 382.881 35.9765 382.827 36.2288C382.773 36.4991 382.935 36.7514 383.187 36.8054L388.569 38.0308C388.839 38.0848 389.091 37.9226 389.145 37.6704C389.217 37.4181 389.055 37.1478 388.785 37.0937ZM361.911 38.0488L367.293 36.8234C367.563 36.7694 367.725 36.4991 367.653 36.2468C367.599 35.9765 367.329 35.8143 367.077 35.8864L361.695 37.1117C361.425 37.1658 361.263 37.4361 361.335 37.6884C361.389 37.9407 361.641 38.1028 361.911 38.0488ZM364.161 26.2817L368.463 29.7235C368.679 29.8857 368.985 29.8497 369.147 29.6515C369.309 29.4352 369.273 29.1289 369.075 28.9667L364.773 25.5249C364.557 25.3627 364.251 25.3987 364.089 25.597C363.909 25.7952 363.945 26.1015 364.161 26.2817ZM385.707 25.5069L381.405 28.9487C381.189 29.1109 381.153 29.4172 381.333 29.6334C381.495 29.8497 381.801 29.8857 382.017 29.7055L386.319 26.2637C386.535 26.1015 386.571 25.7952 386.391 25.5789C386.229 25.3807 385.923 25.3447 385.707 25.5069ZM374.763 20.6955V26.2096C374.763 26.4799 374.979 26.6962 375.249 26.6962C375.519 26.6962 375.735 26.4799 375.735 26.2096V20.6955C375.735 20.4252 375.519 20.209 375.249 20.209C374.979 20.209 374.763 20.4252 374.763 20.6955Z" fill="white"/>
</svg>
